<?xml version="1.0" encoding="UTF-8"?>
<svg width="10px" height="10px" viewBox="0 0 82 82" version="1.1" xmlns="http://www.w3.org/2000/svg" xmlns:xlink="http://www.w3.org/1999/xlink">
    <!-- Generator: Sketch 59 (86127) - https://sketch.com -->
    <title>xcjl</title>
    <desc>Created with Sketch.</desc>
    <g id="页面-1" stroke="none" stroke-width="1" fill="none" fill-rule="evenodd">
        <g id="工作台" transform="translate(-420.000000, -654.000000)">
            <g id="扫码巡查" transform="translate(400.000000, 635.000000)">
                <g id="xcjl" transform="translate(20.000000, 19.000000)">
                    <circle id="椭圆形" fill="#3276DA" cx="41" cy="41" r="41"></circle>
                    <g id="编组" transform="translate(21.000000, 23.000000)" fill="#FFFFFF" stroke="#FFFFFF" stroke-width="0.5">
                        <g transform="translate(0.000000, 4.000000)">
                            <path d="M20.0463643,30.9687273 C9.14915,30.9687273 0.277042857,22.1556364 0.277042857,11.3309091 C0.277042857,10.7258182 0.776364286,10.2298182 1.38697143,10.2298182 C1.99611429,10.2298182 2.49543571,10.7258182 2.49543571,11.3309091 C2.49543571,20.944 10.3703643,28.7650909 20.0463643,28.7650909 C29.7223643,28.7650909 37.5972929,20.944 37.5972929,11.3309091 C37.5972929,8.08145455 36.6821143,4.91345455 34.9908643,2.18763636 C34.6584714,1.664 34.8239357,1.00218182 35.3510786,0.672 C35.8782214,0.341818182 36.5430071,0.507636364 36.8768643,1.02981818 C38.7892214,4.11490909 39.8156857,7.696 39.8156857,11.3309091 C39.7878643,22.1556364 30.9435786,30.9687273 20.0463643,30.9687273" id="Fill-1"></path>
                            <path d="M0,6.92450909 C0,7.82196364 0.732142857,8.54923636 1.63560714,8.54923636 C2.53907143,8.54923636 3.27121429,7.82196364 3.27121429,6.92450909 C3.27121429,6.02705455 2.53907143,5.29978182 1.63560714,5.29978182 C0.732142857,5.29978182 0,6.02705455 0,6.92450909" id="Fill-3"></path>
                        </g>
                        <g transform="translate(8.000000, 0.000000)">
                            <path d="M20.3437091,26.534476 C19.9029818,26.534476 19.4898909,26.254756 19.3240727,25.834436 L14.4222545,13.138996 L19.3240727,0.863876 C19.5451636,0.302956 20.1778909,0.023236 20.7568,0.248196 C21.3080727,0.471676 21.5829818,1.116956 21.3633455,1.704516 L16.7902545,13.167116 L21.3633455,25.021916 C21.5829818,25.581356 21.3080727,26.226636 20.7568,26.450116 C20.6186182,26.506356 20.4818909,26.534476 20.3437091,26.534476 M12.9895273,26.534476 C12.5488,26.534476 12.1357091,26.254756 11.9713455,25.834436 L7.06807273,13.138996 L11.9713455,0.863876 C12.1909818,0.302956 12.8251636,0.023236 13.4026182,0.248196 C13.9538909,0.471676 14.2288,1.116956 14.0091636,1.704516 L9.43752727,13.167116 L14.0091636,25.021916 C14.2288,25.581356 13.9538909,26.226636 13.4026182,26.450116 C13.2658909,26.506356 13.1277091,26.534476 12.9895273,26.534476" id="Fill-5"></path>
                            <path d="M6.24203636,26.366496 C5.80130909,26.366496 5.38821818,26.086776 5.2224,25.666456 L0.320581818,12.971016 L5.2224,0.695896 C5.44349091,0.134976 6.07621818,-0.144744 6.65512727,0.080216 C7.2064,0.303696 7.48130909,0.948976 7.26167273,1.536536 L2.66094545,12.971016 L7.26167273,24.825816 C7.48130909,25.385256 7.2064,26.030536 6.65512727,26.254016 C6.51694545,26.338376 6.38021818,26.366496 6.24203636,26.366496 M29.2122182,36.932216 C28.9096727,36.932216 28.5780364,36.791616 28.3860364,36.538536 L23.4289455,30.513456 C23.0434909,30.036896 23.0973091,29.336856 23.5656727,28.944656 C24.0340364,28.552456 24.7234909,28.608696 25.1089455,29.085256 L30.0660364,35.110336 C30.4514909,35.586896 30.3962182,36.286936 29.9278545,36.679136 C29.7082182,36.847856 29.4594909,36.932216 29.2122182,36.932216" id="Fill-7"></path>
                        </g>
                    </g>
                </g>
            </g>
        </g>
    </g>
</svg>